<svg width="24" height="24" viewBox="0 0 24 24" fill="none" xmlns="http://www.w3.org/2000/svg">
<path d="M20.0397 6.82018L14.2797 2.79018C12.7097 1.69018 10.2997 1.75018 8.78975 2.92018L3.77975 6.83018C2.77975 7.61018 1.98975 9.21018 1.98975 10.4702V17.3702C1.98975 19.9202 4.05975 22.0002 6.60975 22.0002H17.3897C19.9397 22.0002 22.0097 19.9302 22.0097 17.3802V10.6002C22.0097 9.25018 21.1397 7.59018 20.0397 6.82018ZM12.7497 18.0002C12.7497 18.4102 12.4097 18.7502 11.9997 18.7502C11.5897 18.7502 11.2497 18.4102 11.2497 18.0002V15.0002C11.2497 14.5902 11.5897 14.2502 11.9997 14.2502C12.4097 14.2502 12.7497 14.5902 12.7497 15.0002V18.0002Z" fill="#FEFEFE"/>
</svg>
